<?xml version="1.0" standalone="no"?>
<svg width="800" height="385" viewBox="0 0 800 385" xmlns="http://www.w3.org/2000/svg">
<title>Arabic (al-`Arabiyya) in Arabic</title>
<g transform="translate(-440,3570)scale(0.5,-0.5)">
<path d="M1106.37,7030.12L1078.6,6979.5L1021.65,7009.73L1048.02,7060L1106.37,7030.12Z
M1025.16,6998.48L998.44,6947.5L941.14,6977.03L967.16,7028.01L1025.16,6998.48Z
M1195.66,6610.01H1145.04C1128.17,6610.01,1113.4,6624.42,1100.39,6653.25C1090.55,6674.7,1082.81,6702.47,1076.84,6736.57C1069.81,6723.21,1061.02,6713.02,1050.12,6705.98C1039.22,6698.6,1027.97,6695.08,1016.02,6695.08C988.951,6695.08,966.451,6696.84,948.521,6700.35C930.241,6703.87,921.451,6708.79,921.451,6714.41C921.451,6734.45,934.46,6756.6,960.831,6781.21C987.2,6805.82,1020.24,6827.26,1059.62,6845.55C1059.27,6847.31,1058.21,6852.23,1056.81,6860.32C1055.05,6868.05,1054.35,6872.98,1054.35,6875.09C1054.35,6882.82,1057.16,6891.97,1062.44,6901.81C1067.01,6909.54,1072.99,6917.98,1080.37,6926.42C1082.48,6911.65,1084.94,6897.59,1087.4,6884.23C1089.86,6870.52,1092.67,6856.46,1096.19,6842.04L1106.74,6781.57C1112.72,6748.17,1117.99,6723.56,1122.56,6707.74C1129.94,6683.13,1137.33,6671.18,1145.06,6671.18L1195.68,6671.18L1195.66,6610.01Z
M1072.27,6767.16L1065.59,6805.48C1045.2,6798.1,1029.03,6790.36,1017.43,6782.63C1005.48,6774.9,995.63,6764.35,987.55,6751.69C992.82,6749.58,998.45,6747.82,1005.13,6746.77C1011.46,6745.36,1020.6,6745.01,1032.2,6745.01C1046.26,6745.01,1059.62,6752.39,1072.28,6767.16Z"/>
<path d="M1371.09,6610.01H1170V6671.18H1345.08C1345.08,6698.6,1341.92,6719.7,1335.24,6734.46C1331.02,6744.3,1319.77,6759.07,1302.19,6778.05L1329.61,6835.35C1346.49,6813.9,1357.38,6797.38,1361.6,6785.43C1367.93,6767.15,1371.09,6737.27,1371.09,6695.78L1371.09,6610.01Z
M1369.34,6539.7L1341.57,6489.08L1284.62,6519.31L1310.99,6569.58L1369.34,6539.7Z
M1288.12,6508.05L1261.4,6457.07L1204.1,6486.6L1230.12,6537.58Z"/>
<path d="M1547.09,6610.01H1346V6671.18H1521.08C1521.08,6698.6,1517.92,6719.7,1511.24,6734.46C1507.02,6744.3,1495.77,6759.07,1478.19,6778.05L1505.61,6835.35C1522.49,6813.9,1533.38,6797.38,1537.6,6785.43C1543.93,6767.15,1547.09,6737.27,1547.09,6695.78L1547.09,6610.01Z
M1510.88,6524.58L1483.46,6473.6L1426.16,6503.13L1452.53,6554.46Z"/>
<path d="M1898.93,6610.01C1898.93,6583.99,1887.68,6557.28,1865.53,6529.85C1846.19,6505.24,1822.29,6484.5,1793.81,6466.92C1766.39,6450.05,1743.89,6441.61,1726.31,6441.61C1710.14,6441.61,1692.56,6443.72,1673.58,6448.64C1659.17,6452.16,1642.29,6457.43,1622.25,6465.16C1605.02,6471.49,1588.5,6477.82,1571.63,6484.14L1577.61,6498.2C1593.08,6495.04,1609.25,6491.87,1626.13,6488.71C1643.01,6485.55,1658.12,6484.14,1671.83,6484.14C1702.06,6484.14,1733.35,6493.63,1766.05,6512.97C1795.93,6530.55,1820.89,6552.7,1841.99,6579.42C1863.08,6606.14,1873.28,6630.4,1873.28,6652.19C1873.28,6670.47,1868.01,6690.16,1857.11,6710.55C1848.32,6726.72,1836.37,6743.6,1820.55,6761.18L1840.59,6816.38C1859.93,6798.45,1873.99,6780.52,1883.48,6762.94C1893.68,6742.55,1898.95,6720.05,1898.95,6695.44Z"/>
<path d="M2181.37,6610.01H2129.34C2114.22,6610.01,2098.75,6613.53,2082.93,6620.91C2063.95,6629.35,2050.23,6641.65,2041.8,6657.12C2026.33,6643.06,2008.05,6632.16,1988.01,6624.42C1963.4,6614.58,1935.28,6610.01,1903.64,6610.01L1872,6610.01V6671.18H1903.64C1923.33,6671.18,1941.61,6673.29,1958.48,6677.51C1977.82,6682.43,1996.8,6690.17,2015.43,6701.06L2000.66,6720.04C1993.28,6728.83,1984.49,6733.4,1975.35,6733.4C1971.13,6733.4,1967.26,6732.35,1964.1,6730.94C1960.58,6729.53,1957.07,6726.02,1952.85,6721.1L1945.47,6721.1V6741.84C1945.47,6767.5,1952.5,6785.08,1966.21,6794.93C1978.51,6803.37,2000.31,6807.94,2030.9,6807.94C2057.62,6807.94,2079.06,6804.42,2095.94,6797.39C2117.74,6788.25,2128.64,6774.19,2128.64,6755.2C2128.64,6745,2124.42,6734.46,2115.63,6723.91C2109.3,6715.82,2097.7,6704.93,2080.83,6690.86C2084.7,6685.24,2091.73,6680.31,2102.63,6676.8C2113.18,6672.93,2122.32,6671.18,2129.35,6671.18L2181.38,6671.18Z"/>
<path d="M2330.02,6610.01H2156V6671.18H2294.52L2252.68,6969.3L2234.05,6978.09C2234.05,6994.26,2235.46,7009.38,2238.27,7023.44C2241.08,7037.5,2245.65,7051.57,2251.28,7064.92L2256.55,7061.05C2256.55,7047.34,2263.93,7037.14,2279.4,7030.46C2291,7025.54,2302.95,7020.97,2314.91,7016.4C2314.91,7004.45,2314.21,6992.14,2312.1,6978.78C2310.34,6965.42,2308.23,6955.23,2305.42,6948.9L2288.55,6954.53L2330.03,6678.91Z"/>
<path d="M2423.18,6699.66C2423.18,6680.68,2419.66,6662.75,2412.98,6645.17C2409.46,6635.68,2401.73,6620.91,2389.78,6600.52L2383.45,6604.04C2384.15,6610.72,2384.86,6618.45,2385.56,6627.59C2386.26,6636.38,2386.26,6642.36,2386.26,6645.52C2386.26,6669.78,2384.5,6703.88,2380.64,6747.47C2376.77,6791.06,2372.2,6836.77,2366.58,6884.58C2363.42,6913.41,2359.55,6942.59,2355.68,6972.82C2360.25,6983.02,2365.88,6994.27,2371.85,7006.22C2377.83,7018.17,2383.45,7029.42,2388.73,7039.97C2392.6,7013.25,2397.52,6976.69,2403.14,6930.28C2409.12,6883.87,2413.34,6842.04,2416.85,6804.77C2421.07,6758.36,2423.18,6723.21,2423.18,6699.65Z"/></g></svg>